<mxfile host="app.diagrams.net" modified="2023-11-30T09:50:23.992Z" agent="Mozilla/5.0 (X11; Linux x86_64) AppleWebKit/537.36 (KHTML, like Gecko) Chrome/114.0.0.0 Safari/537.36" version="22.1.5" etag="6_GUkeZkfw_XXm8fFoQf" type="github">
  <diagram name="Page-1" id="HYkiShV2VrJbUAuxeLT7">
    <mxGraphModel>
      <root>
        <mxCell id="0" />
        <mxCell id="1" parent="0" />
      </root>
    </mxGraphModel>
  </diagram>
</mxfile>
